<svg width="85" height="85" viewBox="0 0 85 85" fill="none" xmlns="http://www.w3.org/2000/svg">
<path d="M13.9392 40.75C14.9392 42.25 15.7556 42.8936 16.9392 44.25C27.1977 56.0061 34.5024 60.814 45.4393 71.75C45.9393 72.25 46.3588 72.3291 46.9392 72.25C47.9811 72.1079 48.6648 71.9614 49.4392 71.25C49.9576 70.7737 50.3011 70.4403 50.4392 69.75C51.4392 64.75 52.9392 58.75 52.9392 58.75L71.4392 39.75C71.4392 39.75 77.4392 38.75 81.9392 37.75C82.7916 37.5605 83.3217 37.3674 83.9392 36.75C84.5566 36.1325 84.7667 35.606 84.9392 34.75C85.1738 33.5856 84.4392 31.75 84.4392 31.75C84.4392 31.75 65.5453 12.8563 53.4392 0.749965C52.4393 -0.249995 50.4393 -0.249982 49.4392 0.749965C48.6341 1.55501 48.1625 2.13351 47.9392 3.24996C46.9392 8.24993 45.4392 13.75 45.4392 13.75L26.9392 32.75C26.9392 32.75 21.7271 33.5069 18.4392 34.2499C16.6929 34.6446 15.6983 34.2464 14.4392 35.25C13.6757 35.8585 13.2039 36.3102 12.9392 37.25C12.5538 38.6183 13.1507 39.5672 13.9392 40.75Z" fill="#EE4570"/>
<path d="M45.4392 13.75L26.9392 32.75L52.9392 58.75L71.4392 39.75L45.4392 13.75Z" fill="#D63F64"/>
<path d="M0.438996 78.75C7.93921 69.75 24.939 52.25 24.939 52.25L32.4391 59.25C32.4391 59.25 14.9392 75.25 5.43905 83.75C4.71146 84.401 3.86526 84.0587 2.93905 83.75C2.01284 83.4413 1.49478 83.0527 0.939051 82.25C0.153136 81.1148 -0.444931 79.8107 0.438996 78.75Z" fill="#505760"/>
</svg>
