<svg width="100" height="102" viewBox="0 0 100 102" fill="none" xmlns="http://www.w3.org/2000/svg">
<rect width="100" height="102" rx="18" fill="#FD7A6E"/>
<path fill-rule="evenodd" clip-rule="evenodd" d="M62.9068 28.5633C64.2505 24.6513 68.5088 22.5654 72.4244 23.9031C76.344 25.2424 78.4355 29.505 77.0963 33.4246L69.9996 30.9998C77.0922 33.4234 77.0944 33.4313 77.0924 33.4373C77.0916 33.4396 77.0898 33.4451 77.0885 33.449C77.0856 33.4572 77.0827 33.4658 77.0797 33.4744C77.0736 33.4917 77.0669 33.5102 77.0601 33.5291C77.0467 33.5667 77.0324 33.6075 77.0162 33.6511C76.9837 33.7387 76.9448 33.8385 76.9 33.95C76.8103 34.173 76.6953 34.4437 76.5484 34.7605C76.2545 35.3946 75.8353 36.2124 75.2486 37.2058C74.0751 39.1931 72.232 41.8772 69.3736 45.1931C66.9376 48.0191 63.7585 51.3088 59.6187 55.0252C63.3526 58.4198 67.1794 61.2133 70.7516 62.7244C74.5664 64.3381 76.3506 68.7396 74.7369 72.5545C73.1231 76.3689 68.7225 78.1533 64.9078 76.5398C58.7806 73.948 52.9313 69.4046 47.898 64.6111C44.6876 67.0288 41.13 69.5691 37.1861 72.2224C33.7494 74.5344 29.0891 73.6229 26.7769 70.1863C24.4651 66.7497 25.3766 62.0893 28.8131 59.7771C32.0602 57.5926 35.0066 55.504 37.6812 53.5203C35.4577 50.8177 33.5813 48.3472 32.1656 46.4119C31.2303 45.1333 30.4894 44.0804 29.9771 43.3377C29.7211 42.9663 29.5224 42.6714 29.3834 42.4646C29.314 42.3614 29.259 42.2798 29.2203 42.2215C29.2011 42.1925 29.1849 42.1695 29.1734 42.1521C29.1678 42.1435 29.1635 42.1354 29.1598 42.1297C29.1581 42.1271 29.1562 42.1248 29.1549 42.1228L29.1529 42.1199C29.1521 42.1187 29.1515 42.1173 35.1305 38.1902L29.151 42.1179C26.8771 38.6559 27.8404 34.0052 31.3023 31.7312C34.7644 29.4573 39.4141 30.4206 41.6881 33.8826L41.69 33.8845C41.6944 33.8912 41.7028 33.9041 41.7144 33.9217C41.7384 33.9577 41.7771 34.0168 41.8307 34.0965C41.9382 34.2565 42.1051 34.5011 42.3258 34.8211C42.7679 35.4621 43.4275 36.4019 44.2721 37.5564C45.5753 39.3379 47.3069 41.6127 49.3482 44.0886C53.176 40.6706 55.9795 37.7583 58.0123 35.4002C60.3391 32.7009 61.6491 30.7362 62.3326 29.5789C62.6743 29.0003 62.8606 28.6221 62.9391 28.4529C62.9633 28.4006 62.9767 28.3677 62.982 28.3552C62.978 28.3653 62.9692 28.3891 62.9557 28.4256C62.9489 28.4438 62.9411 28.4652 62.9322 28.49C62.9278 28.5025 62.9225 28.5159 62.9176 28.5301C62.9152 28.5369 62.9132 28.5442 62.9107 28.5515C62.9094 28.5553 62.9075 28.5614 62.9068 28.5633Z" fill="white"/>
</svg>
