<svg width="97" height="97" viewBox="0 0 97 97" fill="none" xmlns="http://www.w3.org/2000/svg">
<path d="M16.3508 10.7002C16.3508 31.2111 30.2105 47.8709 47.4983 48.4996C30.2107 49.1286 16.3508 65.789 16.3508 86.2999H48.5V10.7002H16.3508Z" fill="#DEF9F7"/>
<path d="M49.5019 48.4996C66.7895 47.8709 80.649 31.2111 80.649 10.7002H48.5V86.2999H80.649C80.649 65.789 66.7895 49.1286 49.5019 48.4996Z" fill="#DEF9F7"/>
<path d="M42.8474 25.3571C40.8495 25.0889 38.8908 24.4456 36.8828 24.322C33.2482 24.0972 29.7175 25.5758 26.156 26.4597C24.5583 26.8564 22.9373 27.109 21.3099 27.267C26.3545 38.6995 36.4166 46.5786 48.0526 46.7774C47.7221 47.3737 47.428 48.1939 47.102 48.7208C46.1532 50.2546 44.8428 51.3406 43.92 52.9079C42.5537 55.2276 42.166 58.2993 40.8897 60.7039C40.0676 62.2527 38.9089 63.4617 38.0779 65.0031C37.2662 66.5085 36.7928 68.2828 35.9892 69.7959C35.1736 71.3309 34.0493 72.5394 33.0811 73.9187C30.4712 77.6367 29.0219 82.5212 26.4771 86.3H48.5V25.3743C46.6124 25.5231 44.7234 25.6093 42.8474 25.3571Z" fill="#FFECE0"/>
<path d="M70.3177 82.1848C69.6293 81.2707 68.6489 80.6882 68.1936 79.5552C67.7867 78.544 67.8658 77.2303 67.283 76.3732C66.5874 75.3515 65.2946 75.4743 64.46 74.6432C63.4549 73.6425 63.4152 71.5952 62.4569 70.5205C61.948 69.9501 61.2136 69.6981 60.8572 68.9588C60.594 68.4112 60.603 67.7254 60.5038 67.0937C60.1525 64.859 58.494 63.4454 56.9884 62.2589C56.2859 61.7052 55.5717 61.1313 55.0505 60.3072C54.7128 59.7731 54.4683 59.1533 54.2268 58.5383C53.4297 56.5116 52.6326 54.4838 51.8355 52.4567C51.1868 50.8075 50.5833 48.2039 49.6359 46.7455C61.7358 46.2203 72.0498 37.405 76.618 24.9826C68.059 24.6977 59.4867 24.4539 50.9473 25.1703C50.1326 25.2388 49.3162 25.3104 48.4998 25.3746V86.2999H71.4315C71.5507 84.8285 71.1122 83.2403 70.3177 82.1848Z" fill="#FFECE0"/>
<path d="M86.3594 5.34988C86.3594 2.3954 84.3252 0 81.8163 0H48.5V10.7002H81.8163C84.3252 10.7002 86.3594 8.30436 86.3594 5.34988Z" fill="#D9D9D9"/>
<path d="M15.5431 0C13.0341 0 11 2.3954 11 5.34988C11 8.30456 13.0341 10.7002 15.5431 10.7002H48.8594V0H15.5431Z" fill="#D9D9D9"/>
<path d="M14.5431 86C12.0341 86 10 88.3952 10 91.3503C10 94.3048 12.0341 96.7002 14.5431 96.7002H47.8594V86H14.5431Z" fill="#D9D9D9"/>
<path d="M81.1757 86H47.8594V96.7002H81.1757C83.6846 96.7002 85.7188 94.3048 85.7188 91.3503C85.7188 88.3952 83.6846 86 81.1757 86Z" fill="#D9D9D9"/>
</svg>
