<svg width="105" height="105" viewBox="0 0 105 105" fill="none" xmlns="http://www.w3.org/2000/svg">
<circle cx="52.5" cy="52.5" r="52.5" fill="#F9EE80"/>
<circle cx="53" cy="52" r="41" fill="#FAB658"/>
<path d="M53 28C53.8213 28 54.559 28.5025 54.8604 29.2666L60.7637 44.2354L75.7334 50.1396C76.4975 50.441 77 51.1787 77 52C77 52.8213 76.4975 53.559 75.7334 53.8604L60.7637 59.7637L54.8604 74.7334C54.559 75.4975 53.8213 76 53 76C52.1787 76 51.441 75.4975 51.1396 74.7334L45.2354 59.7637L30.2666 53.8604C29.5025 53.559 29 52.8213 29 52C29 51.1787 29.5025 50.441 30.2666 50.1396L45.2354 44.2354L51.1396 29.2666L51.2012 29.126C51.5336 28.4413 52.23 28 53 28Z" fill="#F9D171" stroke="#F9D171" stroke-width="4" stroke-linejoin="round"/>
</svg>
